<?xml version="1.0" standalone="no"?>
<!DOCTYPE svg PUBLIC "-//W3C//DTD SVG 20010904//EN"
 "http://www.w3.org/TR/2001/REC-SVG-20010904/DTD/svg10.dtd">
<svg version="1.0" xmlns="http://www.w3.org/2000/svg"
 width="142.000000pt" height="220.000000pt" viewBox="0 0 142.000000 220.000000"
 preserveAspectRatio="xMidYMid meet">
<g transform="translate(0.000000,220.000000) scale(0.100000,-0.100000)"
fill="#000000" stroke="none">
<path d="M551 1945 c-268 -75 -411 -371 -411 -852 0 -256 40 -462 115 -596 58
-103 165 -194 265 -226 131 -41 299 -32 416 23 104 49 174 122 229 238 55 118
80 226 96 411 14 161 2 375 -27 512 -53 242 -170 409 -334 476 -72 29 -266 37
-349 14z m298 -139 c156 -79 249 -286 263 -586 l2 -55 -412 -3 -412 -2 0 52
c0 58 33 260 51 317 31 97 98 196 165 248 91 69 239 81 343 29z m262 -791 c3
-2 1 -48 -3 -102 -8 -103 -38 -238 -70 -312 l-18 -43 -33 25 c-17 13 -48 35
-67 48 -19 13 -90 67 -158 119 -68 52 -135 104 -150 115 -61 45 -171 136 -177
145 -6 10 666 15 676 5z m-594 -257 c233 -176 249 -189 341 -262 70 -56 70
-61 -11 -97 -73 -33 -220 -34 -289 -2 -91 42 -167 130 -208 244 -26 70 -67
279 -55 279 4 0 104 -73 222 -162z"/>
</g>
</svg>
